<svg xmlns="http://www.w3.org/2000/svg" xmlns:xlink="http://www.w3.org/1999/xlink" width="500" zoomAndPan="magnify" viewBox="0 0 375 112.499997" height="150" preserveAspectRatio="xMidYMid meet" version="1.0"><defs><g/><clipPath id="2ecd56c3ca"><path d="M 0.828125 0 L 374.167969 0 L 374.167969 112.003906 L 0.828125 112.003906 Z M 0.828125 0 " clip-rule="nonzero"/></clipPath><linearGradient x1="0.00038147" gradientTransform="matrix(1.460548, 0, 0, 1.460548, 0.829094, -130.669244)" y1="128" x2="255.617278" gradientUnits="userSpaceOnUse" y2="128" id="cceb288e63"><stop stop-opacity="1" stop-color="rgb(36.499023%, 87.799072%, 90.19928%)" offset="0"/><stop stop-opacity="1" stop-color="rgb(36.357117%, 87.57019%, 90.112305%)" offset="0.00390625"/><stop stop-opacity="1" stop-color="rgb(36.216736%, 87.342834%, 90.02533%)" offset="0.0078125"/><stop stop-opacity="1" stop-color="rgb(36.074829%, 87.113953%, 89.938354%)" offset="0.0117187"/><stop stop-opacity="1" stop-color="rgb(35.932922%, 86.886597%, 89.851379%)" offset="0.015625"/><stop stop-opacity="1" stop-color="rgb(35.791016%, 86.659241%, 89.764404%)" offset="0.0195312"/><stop stop-opacity="1" stop-color="rgb(35.650635%, 86.431885%, 89.677429%)" offset="0.0234375"/><stop stop-opacity="1" stop-color="rgb(35.508728%, 86.203003%, 89.590454%)" offset="0.0273438"/><stop stop-opacity="1" stop-color="rgb(35.366821%, 85.975647%, 89.505005%)" offset="0.03125"/><stop stop-opacity="1" stop-color="rgb(35.224915%, 85.746765%, 89.41803%)" offset="0.0351563"/><stop stop-opacity="1" stop-color="rgb(35.084534%, 85.519409%, 89.331055%)" offset="0.0390625"/><stop stop-opacity="1" stop-color="rgb(34.942627%, 85.290527%, 89.24408%)" offset="0.0429688"/><stop stop-opacity="1" stop-color="rgb(34.80072%, 85.063171%, 89.157104%)" offset="0.046875"/><stop stop-opacity="1" stop-color="rgb(34.658813%, 84.83429%, 89.070129%)" offset="0.0507812"/><stop stop-opacity="1" stop-color="rgb(34.518433%, 84.606934%, 88.983154%)" offset="0.0546875"/><stop stop-opacity="1" stop-color="rgb(34.376526%, 84.379578%, 88.896179%)" offset="0.0585938"/><stop stop-opacity="1" stop-color="rgb(34.234619%, 84.152222%, 88.809204%)" offset="0.0625"/><stop stop-opacity="1" stop-color="rgb(34.092712%, 83.92334%, 88.722229%)" offset="0.0664062"/><stop stop-opacity="1" stop-color="rgb(33.952332%, 83.695984%, 88.635254%)" offset="0.0703125"/><stop stop-opacity="1" stop-color="rgb(33.810425%, 83.467102%, 88.548279%)" offset="0.0742188"/><stop stop-opacity="1" stop-color="rgb(33.668518%, 83.239746%, 88.46283%)" offset="0.078125"/><stop stop-opacity="1" stop-color="rgb(33.526611%, 83.010864%, 88.375854%)" offset="0.0820312"/><stop stop-opacity="1" stop-color="rgb(33.38623%, 82.783508%, 88.288879%)" offset="0.0859375"/><stop stop-opacity="1" stop-color="rgb(33.244324%, 82.554626%, 88.201904%)" offset="0.0898437"/><stop stop-opacity="1" stop-color="rgb(33.102417%, 82.327271%, 88.114929%)" offset="0.09375"/><stop stop-opacity="1" stop-color="rgb(32.96051%, 82.098389%, 88.027954%)" offset="0.0976562"/><stop stop-opacity="1" stop-color="rgb(32.820129%, 81.871033%, 87.940979%)" offset="0.101562"/><stop stop-opacity="1" stop-color="rgb(32.678223%, 81.643677%, 87.854004%)" offset="0.105469"/><stop stop-opacity="1" stop-color="rgb(32.536316%, 81.416321%, 87.767029%)" offset="0.109375"/><stop stop-opacity="1" stop-color="rgb(32.394409%, 81.187439%, 87.680054%)" offset="0.113281"/><stop stop-opacity="1" stop-color="rgb(32.254028%, 80.960083%, 87.593079%)" offset="0.117187"/><stop stop-opacity="1" stop-color="rgb(32.112122%, 80.731201%, 87.506104%)" offset="0.121094"/><stop stop-opacity="1" stop-color="rgb(31.970215%, 80.503845%, 87.420654%)" offset="0.125"/><stop stop-opacity="1" stop-color="rgb(31.828308%, 80.274963%, 87.333679%)" offset="0.128906"/><stop stop-opacity="1" stop-color="rgb(31.687927%, 80.047607%, 87.246704%)" offset="0.132812"/><stop stop-opacity="1" stop-color="rgb(31.546021%, 79.818726%, 87.159729%)" offset="0.136719"/><stop stop-opacity="1" stop-color="rgb(31.404114%, 79.59137%, 87.072754%)" offset="0.140625"/><stop stop-opacity="1" stop-color="rgb(31.262207%, 79.364014%, 86.985779%)" offset="0.144531"/><stop stop-opacity="1" stop-color="rgb(31.121826%, 79.136658%, 86.898804%)" offset="0.148438"/><stop stop-opacity="1" stop-color="rgb(30.979919%, 78.907776%, 86.811829%)" offset="0.152344"/><stop stop-opacity="1" stop-color="rgb(30.838013%, 78.68042%, 86.724854%)" offset="0.15625"/><stop stop-opacity="1" stop-color="rgb(30.696106%, 78.451538%, 86.637878%)" offset="0.160156"/><stop stop-opacity="1" stop-color="rgb(30.555725%, 78.224182%, 86.550903%)" offset="0.164063"/><stop stop-opacity="1" stop-color="rgb(30.413818%, 77.9953%, 86.463928%)" offset="0.167969"/><stop stop-opacity="1" stop-color="rgb(30.271912%, 77.767944%, 86.378479%)" offset="0.171875"/><stop stop-opacity="1" stop-color="rgb(30.130005%, 77.539062%, 86.291504%)" offset="0.175781"/><stop stop-opacity="1" stop-color="rgb(29.989624%, 77.311707%, 86.204529%)" offset="0.179688"/><stop stop-opacity="1" stop-color="rgb(29.847717%, 77.082825%, 86.117554%)" offset="0.183594"/><stop stop-opacity="1" stop-color="rgb(29.705811%, 76.855469%, 86.030579%)" offset="0.1875"/><stop stop-opacity="1" stop-color="rgb(29.563904%, 76.628113%, 85.943604%)" offset="0.191406"/><stop stop-opacity="1" stop-color="rgb(29.423523%, 76.400757%, 85.856628%)" offset="0.195312"/><stop stop-opacity="1" stop-color="rgb(29.281616%, 76.171875%, 85.769653%)" offset="0.199219"/><stop stop-opacity="1" stop-color="rgb(29.139709%, 75.944519%, 85.682678%)" offset="0.203125"/><stop stop-opacity="1" stop-color="rgb(28.997803%, 75.715637%, 85.595703%)" offset="0.207031"/><stop stop-opacity="1" stop-color="rgb(28.857422%, 75.488281%, 85.508728%)" offset="0.210938"/><stop stop-opacity="1" stop-color="rgb(28.715515%, 75.259399%, 85.421753%)" offset="0.214844"/><stop stop-opacity="1" stop-color="rgb(28.573608%, 75.032043%, 85.336304%)" offset="0.21875"/><stop stop-opacity="1" stop-color="rgb(28.431702%, 74.803162%, 85.249329%)" offset="0.222656"/><stop stop-opacity="1" stop-color="rgb(28.291321%, 74.575806%, 85.162354%)" offset="0.226562"/><stop stop-opacity="1" stop-color="rgb(28.149414%, 74.34845%, 85.075378%)" offset="0.230469"/><stop stop-opacity="1" stop-color="rgb(28.007507%, 74.121094%, 84.988403%)" offset="0.234375"/><stop stop-opacity="1" stop-color="rgb(27.865601%, 73.892212%, 84.901428%)" offset="0.238281"/><stop stop-opacity="1" stop-color="rgb(27.72522%, 73.664856%, 84.814453%)" offset="0.242188"/><stop stop-opacity="1" stop-color="rgb(27.583313%, 73.435974%, 84.727478%)" offset="0.246094"/><stop stop-opacity="1" stop-color="rgb(27.441406%, 73.208618%, 84.640503%)" offset="0.25"/><stop stop-opacity="1" stop-color="rgb(27.2995%, 72.979736%, 84.553528%)" offset="0.253906"/><stop stop-opacity="1" stop-color="rgb(27.159119%, 72.75238%, 84.466553%)" offset="0.257812"/><stop stop-opacity="1" stop-color="rgb(27.017212%, 72.523499%, 84.379578%)" offset="0.261719"/><stop stop-opacity="1" stop-color="rgb(26.875305%, 72.296143%, 84.294128%)" offset="0.265625"/><stop stop-opacity="1" stop-color="rgb(26.733398%, 72.067261%, 84.207153%)" offset="0.269531"/><stop stop-opacity="1" stop-color="rgb(26.593018%, 71.839905%, 84.120178%)" offset="0.273437"/><stop stop-opacity="1" stop-color="rgb(26.451111%, 71.612549%, 84.033203%)" offset="0.277344"/><stop stop-opacity="1" stop-color="rgb(26.309204%, 71.385193%, 83.946228%)" offset="0.28125"/><stop stop-opacity="1" stop-color="rgb(26.167297%, 71.156311%, 83.859253%)" offset="0.285156"/><stop stop-opacity="1" stop-color="rgb(26.026917%, 70.928955%, 83.772278%)" offset="0.289062"/><stop stop-opacity="1" stop-color="rgb(25.88501%, 70.700073%, 83.685303%)" offset="0.292969"/><stop stop-opacity="1" stop-color="rgb(25.743103%, 70.472717%, 83.598328%)" offset="0.296875"/><stop stop-opacity="1" stop-color="rgb(25.601196%, 70.243835%, 83.511353%)" offset="0.300781"/><stop stop-opacity="1" stop-color="rgb(25.460815%, 70.016479%, 83.424377%)" offset="0.304688"/><stop stop-opacity="1" stop-color="rgb(25.318909%, 69.787598%, 83.337402%)" offset="0.308594"/><stop stop-opacity="1" stop-color="rgb(25.177002%, 69.560242%, 83.251953%)" offset="0.3125"/><stop stop-opacity="1" stop-color="rgb(25.035095%, 69.332886%, 83.164978%)" offset="0.316406"/><stop stop-opacity="1" stop-color="rgb(24.894714%, 69.10553%, 83.078003%)" offset="0.320312"/><stop stop-opacity="1" stop-color="rgb(24.752808%, 68.876648%, 82.991028%)" offset="0.324219"/><stop stop-opacity="1" stop-color="rgb(24.612427%, 68.649292%, 82.904053%)" offset="0.328125"/><stop stop-opacity="1" stop-color="rgb(24.47052%, 68.42041%, 82.817078%)" offset="0.332031"/><stop stop-opacity="1" stop-color="rgb(24.328613%, 68.193054%, 82.730103%)" offset="0.335938"/><stop stop-opacity="1" stop-color="rgb(24.186707%, 67.964172%, 82.643127%)" offset="0.339844"/><stop stop-opacity="1" stop-color="rgb(24.046326%, 67.736816%, 82.556152%)" offset="0.34375"/><stop stop-opacity="1" stop-color="rgb(23.904419%, 67.507935%, 82.469177%)" offset="0.347656"/><stop stop-opacity="1" stop-color="rgb(23.762512%, 67.280579%, 82.382202%)" offset="0.351562"/><stop stop-opacity="1" stop-color="rgb(23.620605%, 67.051697%, 82.295227%)" offset="0.355469"/><stop stop-opacity="1" stop-color="rgb(23.480225%, 66.824341%, 82.209778%)" offset="0.359375"/><stop stop-opacity="1" stop-color="rgb(23.338318%, 66.596985%, 82.122803%)" offset="0.363281"/><stop stop-opacity="1" stop-color="rgb(23.196411%, 66.369629%, 82.035828%)" offset="0.367187"/><stop stop-opacity="1" stop-color="rgb(23.054504%, 66.140747%, 81.948853%)" offset="0.371094"/><stop stop-opacity="1" stop-color="rgb(22.914124%, 65.913391%, 81.861877%)" offset="0.375"/><stop stop-opacity="1" stop-color="rgb(22.772217%, 65.684509%, 81.774902%)" offset="0.378906"/><stop stop-opacity="1" stop-color="rgb(22.63031%, 65.457153%, 81.687927%)" offset="0.382812"/><stop stop-opacity="1" stop-color="rgb(22.488403%, 65.228271%, 81.600952%)" offset="0.386719"/><stop stop-opacity="1" stop-color="rgb(22.348022%, 65.000916%, 81.513977%)" offset="0.390625"/><stop stop-opacity="1" stop-color="rgb(22.206116%, 64.772034%, 81.427002%)" offset="0.394531"/><stop stop-opacity="1" stop-color="rgb(22.064209%, 64.544678%, 81.340027%)" offset="0.398437"/><stop stop-opacity="1" stop-color="rgb(21.922302%, 64.317322%, 81.253052%)" offset="0.402344"/><stop stop-opacity="1" stop-color="rgb(21.781921%, 64.089966%, 81.167603%)" offset="0.40625"/><stop stop-opacity="1" stop-color="rgb(21.640015%, 63.861084%, 81.080627%)" offset="0.410156"/><stop stop-opacity="1" stop-color="rgb(21.498108%, 63.633728%, 80.993652%)" offset="0.414062"/><stop stop-opacity="1" stop-color="rgb(21.356201%, 63.404846%, 80.906677%)" offset="0.417969"/><stop stop-opacity="1" stop-color="rgb(21.21582%, 63.17749%, 80.819702%)" offset="0.421875"/><stop stop-opacity="1" stop-color="rgb(21.073914%, 62.948608%, 80.732727%)" offset="0.425781"/><stop stop-opacity="1" stop-color="rgb(20.932007%, 62.721252%, 80.645752%)" offset="0.429688"/><stop stop-opacity="1" stop-color="rgb(20.7901%, 62.492371%, 80.558777%)" offset="0.433594"/><stop stop-opacity="1" stop-color="rgb(20.649719%, 62.265015%, 80.471802%)" offset="0.4375"/><stop stop-opacity="1" stop-color="rgb(20.507812%, 62.036133%, 80.384827%)" offset="0.441406"/><stop stop-opacity="1" stop-color="rgb(20.365906%, 61.808777%, 80.297852%)" offset="0.445312"/><stop stop-opacity="1" stop-color="rgb(20.223999%, 61.581421%, 80.210876%)" offset="0.449219"/><stop stop-opacity="1" stop-color="rgb(20.083618%, 61.354065%, 80.125427%)" offset="0.453125"/><stop stop-opacity="1" stop-color="rgb(19.941711%, 61.125183%, 80.038452%)" offset="0.457031"/><stop stop-opacity="1" stop-color="rgb(19.799805%, 60.897827%, 79.951477%)" offset="0.460937"/><stop stop-opacity="1" stop-color="rgb(19.657898%, 60.668945%, 79.864502%)" offset="0.464844"/><stop stop-opacity="1" stop-color="rgb(19.517517%, 60.441589%, 79.777527%)" offset="0.46875"/><stop stop-opacity="1" stop-color="rgb(19.37561%, 60.212708%, 79.690552%)" offset="0.472656"/><stop stop-opacity="1" stop-color="rgb(19.233704%, 59.985352%, 79.603577%)" offset="0.476562"/><stop stop-opacity="1" stop-color="rgb(19.091797%, 59.75647%, 79.516602%)" offset="0.480469"/><stop stop-opacity="1" stop-color="rgb(18.951416%, 59.529114%, 79.429626%)" offset="0.484375"/><stop stop-opacity="1" stop-color="rgb(18.809509%, 59.301758%, 79.342651%)" offset="0.488281"/><stop stop-opacity="1" stop-color="rgb(18.667603%, 59.074402%, 79.255676%)" offset="0.492187"/><stop stop-opacity="1" stop-color="rgb(18.525696%, 58.84552%, 79.168701%)" offset="0.496094"/><stop stop-opacity="1" stop-color="rgb(18.385315%, 58.618164%, 79.083252%)" offset="0.5"/><stop stop-opacity="1" stop-color="rgb(18.243408%, 58.389282%, 78.996277%)" offset="0.503906"/><stop stop-opacity="1" stop-color="rgb(18.101501%, 58.161926%, 78.909302%)" offset="0.507812"/><stop stop-opacity="1" stop-color="rgb(17.959595%, 57.933044%, 78.822327%)" offset="0.511719"/><stop stop-opacity="1" stop-color="rgb(17.819214%, 57.705688%, 78.735352%)" offset="0.515625"/><stop stop-opacity="1" stop-color="rgb(17.677307%, 57.476807%, 78.648376%)" offset="0.519531"/><stop stop-opacity="1" stop-color="rgb(17.5354%, 57.249451%, 78.561401%)" offset="0.523437"/><stop stop-opacity="1" stop-color="rgb(17.393494%, 57.020569%, 78.474426%)" offset="0.527344"/><stop stop-opacity="1" stop-color="rgb(17.253113%, 56.793213%, 78.387451%)" offset="0.53125"/><stop stop-opacity="1" stop-color="rgb(17.111206%, 56.565857%, 78.300476%)" offset="0.535156"/><stop stop-opacity="1" stop-color="rgb(16.969299%, 56.338501%, 78.213501%)" offset="0.539063"/><stop stop-opacity="1" stop-color="rgb(16.827393%, 56.109619%, 78.126526%)" offset="0.542969"/><stop stop-opacity="1" stop-color="rgb(16.687012%, 55.882263%, 78.039551%)" offset="0.546875"/><stop stop-opacity="1" stop-color="rgb(16.545105%, 55.653381%, 77.952576%)" offset="0.550781"/><stop stop-opacity="1" stop-color="rgb(16.403198%, 55.426025%, 77.867126%)" offset="0.554688"/><stop stop-opacity="1" stop-color="rgb(16.261292%, 55.197144%, 77.780151%)" offset="0.558594"/><stop stop-opacity="1" stop-color="rgb(16.120911%, 54.969788%, 77.693176%)" offset="0.5625"/><stop stop-opacity="1" stop-color="rgb(15.979004%, 54.740906%, 77.606201%)" offset="0.566406"/><stop stop-opacity="1" stop-color="rgb(15.837097%, 54.51355%, 77.519226%)" offset="0.570312"/><stop stop-opacity="1" stop-color="rgb(15.69519%, 54.286194%, 77.432251%)" offset="0.574219"/><stop stop-opacity="1" stop-color="rgb(15.55481%, 54.058838%, 77.345276%)" offset="0.578125"/><stop stop-opacity="1" stop-color="rgb(15.412903%, 53.829956%, 77.258301%)" offset="0.582031"/><stop stop-opacity="1" stop-color="rgb(15.270996%, 53.6026%, 77.171326%)" offset="0.585938"/><stop stop-opacity="1" stop-color="rgb(15.129089%, 53.373718%, 77.084351%)" offset="0.589844"/><stop stop-opacity="1" stop-color="rgb(14.988708%, 53.146362%, 76.997375%)" offset="0.59375"/><stop stop-opacity="1" stop-color="rgb(14.846802%, 52.91748%, 76.9104%)" offset="0.597656"/><stop stop-opacity="1" stop-color="rgb(14.704895%, 52.690125%, 76.824951%)" offset="0.601562"/><stop stop-opacity="1" stop-color="rgb(14.562988%, 52.461243%, 76.737976%)" offset="0.605469"/><stop stop-opacity="1" stop-color="rgb(14.422607%, 52.233887%, 76.651001%)" offset="0.609375"/><stop stop-opacity="1" stop-color="rgb(14.280701%, 52.005005%, 76.564026%)" offset="0.613281"/><stop stop-opacity="1" stop-color="rgb(14.138794%, 51.777649%, 76.477051%)" offset="0.617187"/><stop stop-opacity="1" stop-color="rgb(13.996887%, 51.550293%, 76.390076%)" offset="0.621094"/><stop stop-opacity="1" stop-color="rgb(13.856506%, 51.322937%, 76.303101%)" offset="0.625"/><stop stop-opacity="1" stop-color="rgb(13.7146%, 51.094055%, 76.216125%)" offset="0.628906"/><stop stop-opacity="1" stop-color="rgb(13.572693%, 50.866699%, 76.12915%)" offset="0.632813"/><stop stop-opacity="1" stop-color="rgb(13.430786%, 50.637817%, 76.042175%)" offset="0.636719"/><stop stop-opacity="1" stop-color="rgb(13.290405%, 50.410461%, 75.9552%)" offset="0.640625"/><stop stop-opacity="1" stop-color="rgb(13.148499%, 50.18158%, 75.868225%)" offset="0.644531"/><stop stop-opacity="1" stop-color="rgb(13.006592%, 49.954224%, 75.782776%)" offset="0.648438"/><stop stop-opacity="1" stop-color="rgb(12.864685%, 49.725342%, 75.695801%)" offset="0.652344"/><stop stop-opacity="1" stop-color="rgb(12.724304%, 49.497986%, 75.608826%)" offset="0.65625"/><stop stop-opacity="1" stop-color="rgb(12.582397%, 49.27063%, 75.521851%)" offset="0.660156"/><stop stop-opacity="1" stop-color="rgb(12.440491%, 49.043274%, 75.434875%)" offset="0.664062"/><stop stop-opacity="1" stop-color="rgb(12.298584%, 48.814392%, 75.3479%)" offset="0.667969"/><stop stop-opacity="1" stop-color="rgb(12.158203%, 48.587036%, 75.260925%)" offset="0.671875"/><stop stop-opacity="1" stop-color="rgb(12.016296%, 48.358154%, 75.17395%)" offset="0.675781"/><stop stop-opacity="1" stop-color="rgb(11.87439%, 48.130798%, 75.086975%)" offset="0.679688"/><stop stop-opacity="1" stop-color="rgb(11.732483%, 47.901917%, 75%)" offset="0.683594"/><stop stop-opacity="1" stop-color="rgb(11.592102%, 47.674561%, 74.913025%)" offset="0.6875"/><stop stop-opacity="1" stop-color="rgb(11.450195%, 47.445679%, 74.82605%)" offset="0.691406"/><stop stop-opacity="1" stop-color="rgb(11.308289%, 47.218323%, 74.740601%)" offset="0.695312"/><stop stop-opacity="1" stop-color="rgb(11.166382%, 46.990967%, 74.653625%)" offset="0.699219"/><stop stop-opacity="1" stop-color="rgb(11.026001%, 46.763611%, 74.56665%)" offset="0.703125"/><stop stop-opacity="1" stop-color="rgb(10.884094%, 46.534729%, 74.479675%)" offset="0.707031"/><stop stop-opacity="1" stop-color="rgb(10.742188%, 46.307373%, 74.3927%)" offset="0.710937"/><stop stop-opacity="1" stop-color="rgb(10.600281%, 46.078491%, 74.305725%)" offset="0.714844"/><stop stop-opacity="1" stop-color="rgb(10.4599%, 45.851135%, 74.21875%)" offset="0.71875"/><stop stop-opacity="1" stop-color="rgb(10.317993%, 45.622253%, 74.131775%)" offset="0.722656"/><stop stop-opacity="1" stop-color="rgb(10.177612%, 45.394897%, 74.0448%)" offset="0.726563"/><stop stop-opacity="1" stop-color="rgb(10.035706%, 45.166016%, 73.957825%)" offset="0.730469"/><stop stop-opacity="1" stop-color="rgb(9.893799%, 44.93866%, 73.87085%)" offset="0.734375"/><stop stop-opacity="1" stop-color="rgb(9.751892%, 44.709778%, 73.783875%)" offset="0.738281"/><stop stop-opacity="1" stop-color="rgb(9.611511%, 44.482422%, 73.698425%)" offset="0.742188"/><stop stop-opacity="1" stop-color="rgb(9.469604%, 44.255066%, 73.61145%)" offset="0.746094"/><stop stop-opacity="1" stop-color="rgb(9.327698%, 44.02771%, 73.524475%)" offset="0.75"/><stop stop-opacity="1" stop-color="rgb(9.185791%, 43.798828%, 73.4375%)" offset="0.753906"/><stop stop-opacity="1" stop-color="rgb(9.04541%, 43.571472%, 73.350525%)" offset="0.757812"/><stop stop-opacity="1" stop-color="rgb(8.903503%, 43.34259%, 73.26355%)" offset="0.761719"/><stop stop-opacity="1" stop-color="rgb(8.761597%, 43.115234%, 73.176575%)" offset="0.765625"/><stop stop-opacity="1" stop-color="rgb(8.61969%, 42.886353%, 73.0896%)" offset="0.769531"/><stop stop-opacity="1" stop-color="rgb(8.479309%, 42.658997%, 73.002625%)" offset="0.773438"/><stop stop-opacity="1" stop-color="rgb(8.337402%, 42.430115%, 72.915649%)" offset="0.777344"/><stop stop-opacity="1" stop-color="rgb(8.195496%, 42.202759%, 72.828674%)" offset="0.78125"/><stop stop-opacity="1" stop-color="rgb(8.053589%, 41.975403%, 72.741699%)" offset="0.785156"/><stop stop-opacity="1" stop-color="rgb(7.913208%, 41.748047%, 72.65625%)" offset="0.789062"/><stop stop-opacity="1" stop-color="rgb(7.771301%, 41.519165%, 72.569275%)" offset="0.792969"/><stop stop-opacity="1" stop-color="rgb(7.629395%, 41.291809%, 72.4823%)" offset="0.796875"/><stop stop-opacity="1" stop-color="rgb(7.487488%, 41.062927%, 72.395325%)" offset="0.800781"/><stop stop-opacity="1" stop-color="rgb(7.347107%, 40.835571%, 72.30835%)" offset="0.804687"/><stop stop-opacity="1" stop-color="rgb(7.2052%, 40.606689%, 72.221375%)" offset="0.808594"/><stop stop-opacity="1" stop-color="rgb(7.063293%, 40.379333%, 72.134399%)" offset="0.8125"/><stop stop-opacity="1" stop-color="rgb(6.921387%, 40.150452%, 72.047424%)" offset="0.816406"/><stop stop-opacity="1" stop-color="rgb(6.781006%, 39.923096%, 71.960449%)" offset="0.820313"/><stop stop-opacity="1" stop-color="rgb(6.639099%, 39.694214%, 71.873474%)" offset="0.824219"/><stop stop-opacity="1" stop-color="rgb(6.497192%, 39.466858%, 71.786499%)" offset="0.828125"/><stop stop-opacity="1" stop-color="rgb(6.355286%, 39.239502%, 71.699524%)" offset="0.832031"/><stop stop-opacity="1" stop-color="rgb(6.214905%, 39.012146%, 71.614075%)" offset="0.835938"/><stop stop-opacity="1" stop-color="rgb(6.072998%, 38.783264%, 71.5271%)" offset="0.839844"/><stop stop-opacity="1" stop-color="rgb(5.931091%, 38.555908%, 71.440125%)" offset="0.84375"/><stop stop-opacity="1" stop-color="rgb(5.789185%, 38.327026%, 71.353149%)" offset="0.847656"/><stop stop-opacity="1" stop-color="rgb(5.648804%, 38.09967%, 71.266174%)" offset="0.851562"/><stop stop-opacity="1" stop-color="rgb(5.506897%, 37.870789%, 71.179199%)" offset="0.855469"/><stop stop-opacity="1" stop-color="rgb(5.36499%, 37.643433%, 71.092224%)" offset="0.859375"/><stop stop-opacity="1" stop-color="rgb(5.223083%, 37.414551%, 71.005249%)" offset="0.863281"/><stop stop-opacity="1" stop-color="rgb(5.082703%, 37.187195%, 70.918274%)" offset="0.867188"/><stop stop-opacity="1" stop-color="rgb(4.940796%, 36.959839%, 70.831299%)" offset="0.871094"/><stop stop-opacity="1" stop-color="rgb(4.798889%, 36.732483%, 70.744324%)" offset="0.875"/><stop stop-opacity="1" stop-color="rgb(4.656982%, 36.503601%, 70.657349%)" offset="0.878906"/><stop stop-opacity="1" stop-color="rgb(4.516602%, 36.276245%, 70.571899%)" offset="0.882812"/><stop stop-opacity="1" stop-color="rgb(4.374695%, 36.047363%, 70.484924%)" offset="0.886719"/><stop stop-opacity="1" stop-color="rgb(4.232788%, 35.820007%, 70.397949%)" offset="0.890625"/><stop stop-opacity="1" stop-color="rgb(4.090881%, 35.591125%, 70.310974%)" offset="0.894531"/><stop stop-opacity="1" stop-color="rgb(3.9505%, 35.36377%, 70.223999%)" offset="0.898437"/><stop stop-opacity="1" stop-color="rgb(3.808594%, 35.134888%, 70.137024%)" offset="0.902344"/><stop stop-opacity="1" stop-color="rgb(3.666687%, 34.907532%, 70.050049%)" offset="0.90625"/><stop stop-opacity="1" stop-color="rgb(3.52478%, 34.67865%, 69.963074%)" offset="0.910156"/><stop stop-opacity="1" stop-color="rgb(3.384399%, 34.451294%, 69.876099%)" offset="0.914063"/><stop stop-opacity="1" stop-color="rgb(3.242493%, 34.223938%, 69.789124%)" offset="0.917969"/><stop stop-opacity="1" stop-color="rgb(3.100586%, 33.996582%, 69.702148%)" offset="0.921875"/><stop stop-opacity="1" stop-color="rgb(2.958679%, 33.7677%, 69.615173%)" offset="0.925781"/><stop stop-opacity="1" stop-color="rgb(2.818298%, 33.540344%, 69.529724%)" offset="0.929688"/><stop stop-opacity="1" stop-color="rgb(2.676392%, 33.311462%, 69.442749%)" offset="0.933594"/><stop stop-opacity="1" stop-color="rgb(2.534485%, 33.084106%, 69.355774%)" offset="0.9375"/><stop stop-opacity="1" stop-color="rgb(2.392578%, 32.855225%, 69.268799%)" offset="0.941406"/><stop stop-opacity="1" stop-color="rgb(2.252197%, 32.627869%, 69.181824%)" offset="0.945312"/><stop stop-opacity="1" stop-color="rgb(2.110291%, 32.398987%, 69.094849%)" offset="0.949219"/><stop stop-opacity="1" stop-color="rgb(1.968384%, 32.171631%, 69.007874%)" offset="0.953125"/><stop stop-opacity="1" stop-color="rgb(1.826477%, 31.944275%, 68.920898%)" offset="0.957031"/><stop stop-opacity="1" stop-color="rgb(1.686096%, 31.716919%, 68.833923%)" offset="0.960938"/><stop stop-opacity="1" stop-color="rgb(1.544189%, 31.488037%, 68.746948%)" offset="0.964844"/><stop stop-opacity="1" stop-color="rgb(1.402283%, 31.260681%, 68.659973%)" offset="0.96875"/><stop stop-opacity="1" stop-color="rgb(1.260376%, 31.031799%, 68.572998%)" offset="0.972656"/><stop stop-opacity="1" stop-color="rgb(1.119995%, 30.804443%, 68.487549%)" offset="0.976562"/><stop stop-opacity="1" stop-color="rgb(0.978088%, 30.575562%, 68.400574%)" offset="0.980469"/><stop stop-opacity="1" stop-color="rgb(0.836182%, 30.348206%, 68.313599%)" offset="0.984375"/><stop stop-opacity="1" stop-color="rgb(0.694275%, 30.119324%, 68.226624%)" offset="0.988281"/><stop stop-opacity="1" stop-color="rgb(0.553894%, 29.891968%, 68.139648%)" offset="0.992187"/><stop stop-opacity="1" stop-color="rgb(0.411987%, 29.663086%, 68.052673%)" offset="0.996094"/><stop stop-opacity="1" stop-color="rgb(0.270081%, 29.43573%, 67.965698%)" offset="1"/></linearGradient><clipPath id="4eee8b5bff"><path d="M 42 29 L 98 29 L 98 84 L 42 84 Z M 42 29 " clip-rule="nonzero"/></clipPath><clipPath id="8a18e5af8b"><path d="M 83.246094 25.085938 L 102.816406 45.675781 L 54.867188 91.246094 L 35.296875 70.65625 Z M 83.246094 25.085938 " clip-rule="nonzero"/></clipPath><clipPath id="9c7bfc28e3"><path d="M 81.851562 41.988281 C 61.703125 60.988281 60.792969 61.5625 60.238281 62.820312 C 59.679688 64.078125 60.367188 66.488281 59.679688 67.140625 C 59.21875 67.578125 57.28125 67.378906 57.210938 67.15625 C 57.074219 66.703125 65.929688 65.28125 70.640625 62.410156 C 77.699219 58.179688 92.136719 40.230469 93.390625 40.933594 C 93.757812 41.167969 93.5625 42.957031 93.113281 43.09375 C 92.058594 43.367188 88.34375 33.628906 84.234375 33.449219 C 76.242188 33.171875 51.132812 59.222656 47.320312 67.949219 C 45.578125 71.792969 46.191406 77.042969 47.148438 77.738281 C 47.589844 78.050781 48.207031 77.167969 49.183594 77.117188 C 51.128906 77.019531 56.652344 80.222656 58.621094 79.378906 C 59.902344 78.886719 59.574219 77.160156 60.878906 75.769531 C 63.261719 73.214844 69.167969 70.226562 73.527344 66.523438 C 79.023438 62.027344 87.136719 51.691406 90.832031 50.363281 C 92.117188 49.875 93.308594 50.054688 93.894531 50.515625 C 94.257812 50.898438 94.457031 51.878906 94.292969 52.472656 C 93.980469 53.0625 92.910156 53.929688 92.238281 53.988281 C 91.710938 54.050781 90.828125 53.578125 90.464844 53.046875 C 90.105469 52.515625 90.144531 51.019531 90.605469 50.582031 C 91.066406 49.996094 93.164062 49.902344 93.675781 50.289062 C 94.1875 50.824219 94.226562 52.246094 93.746094 53.429688 C 92.398438 56.460938 85.464844 61.59375 80.34375 66.023438 C 74.300781 71.328125 64.332031 81.09375 59.5 82.914062 C 57.390625 83.605469 56.429688 83.210938 54.488281 83.011719 C 51.808594 82.644531 46.824219 81.695312 44.910156 80.449219 C 43.957031 79.75 43.445312 79.214844 43.105469 77.9375 C 42.34375 75.449219 41.429688 70.34375 43.566406 65.6875 C 47.765625 56.296875 73.875 35.128906 80.78125 31.042969 C 82.984375 29.679688 83.90625 28.804688 85.761719 29.226562 C 88.882812 30.054688 95.773438 38.378906 96.683594 40.867188 C 97.109375 41.777344 97.171875 42.152344 96.773438 43.113281 C 95.183594 46.960938 78.664062 61.496094 72.425781 65.671875 C 69.152344 67.90625 66.960938 68.824219 64.25 69.652344 C 61.914062 70.414062 58.75 71.378906 57.269531 70.746094 C 56.230469 70.417969 55.726562 69.582031 55.378906 68.601562 C 54.964844 67.246094 55.09375 65.082031 55.664062 63.226562 C 56.394531 61.078125 58.011719 59.101562 60.097656 56.535156 C 63.417969 52.359375 70.859375 44.996094 74.75 41.882812 C 77.113281 40.070312 79.332031 38.109375 80.75 38.21875 C 81.570312 38.316406 82.449219 39.085938 82.582031 39.6875 C 82.789062 40.367188 81.851562 41.988281 81.851562 41.988281 " clip-rule="nonzero"/></clipPath></defs><g clip-path="url(#2ecd56c3ca)"><path fill="#ffffff" d="M 0.828125 0 L 374.171875 0 L 374.171875 112.003906 L 0.828125 112.003906 Z M 0.828125 0 " fill-opacity="1" fill-rule="nonzero"/><path fill="#ffffff" d="M 0.828125 0 L 374.171875 0 L 374.171875 112.003906 L 0.828125 112.003906 Z M 0.828125 0 " fill-opacity="1" fill-rule="nonzero"/><path fill="url(#cceb288e63)" d="M 0.828125 0 L 0.828125 112.003906 L 374.171875 112.003906 L 374.171875 0 Z M 0.828125 0 " fill-rule="nonzero"/></g><g clip-path="url(#4eee8b5bff)"><g clip-path="url(#8a18e5af8b)"><g clip-path="url(#9c7bfc28e3)"><path fill="#ffffff" d="M 84.09375 21.332031 L 107.617188 46.082031 L 54.445312 96.613281 L 30.925781 71.863281 Z M 84.09375 21.332031 " fill-opacity="1" fill-rule="nonzero"/></g></g></g><g fill="#ffffff" fill-opacity="1"><g transform="translate(113.109465, 68.704999)"><g><path d="M 0.3125 -25.609375 L 0.3125 -32.015625 L 22.828125 -32.015625 L 22.828125 -25.609375 L 15.21875 -25.609375 L 15.21875 0 L 7.921875 0 L 7.921875 -25.609375 Z M 0.3125 -25.609375 "/></g></g></g><g fill="#ffffff" fill-opacity="1"><g transform="translate(136.239966, 68.704999)"><g><path d="M 2.984375 -31.015625 C 3.785156 -31.816406 4.742188 -32.21875 5.859375 -32.21875 C 6.972656 -32.21875 7.929688 -31.816406 8.734375 -31.015625 C 9.535156 -30.210938 9.9375 -29.253906 9.9375 -28.140625 C 9.9375 -27.023438 9.535156 -26.066406 8.734375 -25.265625 C 7.929688 -24.460938 6.972656 -24.0625 5.859375 -24.0625 C 4.742188 -24.0625 3.785156 -24.460938 2.984375 -25.265625 C 2.179688 -26.066406 1.78125 -27.023438 1.78125 -28.140625 C 1.78125 -29.253906 2.179688 -30.210938 2.984375 -31.015625 Z M 2.328125 -19.90625 L 2.328125 0 L 9.203125 0 L 9.203125 -19.90625 Z M 2.328125 -19.90625 "/></g></g></g><g fill="#ffffff" fill-opacity="1"><g transform="translate(147.96045, 68.704999)"><g><path d="M 2.328125 0 L 2.328125 -19.90625 L 9.203125 -19.90625 L 9.203125 -17.8125 L 9.28125 -17.8125 C 11.0625 -19.601562 12.960938 -20.5 14.984375 -20.5 C 16.429688 -20.5 17.785156 -20.195312 19.046875 -19.59375 C 20.316406 -19 21.273438 -18.082031 21.921875 -16.84375 C 23.941406 -19.28125 26.144531 -20.5 28.53125 -20.5 C 30.644531 -20.5 32.46875 -19.898438 34 -18.703125 C 35.53125 -17.515625 36.296875 -15.65625 36.296875 -13.125 L 36.296875 0 L 29.421875 0 L 29.421875 -11.25 C 29.421875 -12.3125 29.128906 -13.195312 28.546875 -13.90625 C 27.960938 -14.625 27.085938 -14.984375 25.921875 -14.984375 C 24.910156 -14.984375 24.140625 -14.675781 23.609375 -14.0625 C 23.085938 -13.457031 22.800781 -12.726562 22.75 -11.875 L 22.75 0 L 15.875 0 L 15.875 -11.25 C 15.875 -12.3125 15.582031 -13.195312 15 -13.90625 C 14.414062 -14.625 13.539062 -14.984375 12.375 -14.984375 C 11.320312 -14.984375 10.53125 -14.648438 10 -13.984375 C 9.46875 -13.328125 9.203125 -12.546875 9.203125 -11.640625 L 9.203125 0 Z M 2.328125 0 "/></g></g></g><g fill="#ffffff" fill-opacity="1"><g transform="translate(186.187871, 68.704999)"><g><path d="M 22.46875 -9 L 8.03125 -9 C 8.03125 -7.601562 8.484375 -6.566406 9.390625 -5.890625 C 10.296875 -5.222656 11.28125 -4.890625 12.34375 -4.890625 C 13.457031 -4.890625 14.335938 -5.035156 14.984375 -5.328125 C 15.628906 -5.628906 16.363281 -6.222656 17.1875 -7.109375 L 22.15625 -4.625 C 20.09375 -1.15625 16.65625 0.578125 11.84375 0.578125 C 8.832031 0.578125 6.253906 -0.445312 4.109375 -2.5 C 1.960938 -4.5625 0.890625 -7.039062 0.890625 -9.9375 C 0.890625 -12.832031 1.960938 -15.316406 4.109375 -17.390625 C 6.253906 -19.460938 8.832031 -20.5 11.84375 -20.5 C 15 -20.5 17.566406 -19.582031 19.546875 -17.75 C 21.523438 -15.925781 22.515625 -13.320312 22.515625 -9.9375 C 22.515625 -9.46875 22.5 -9.15625 22.46875 -9 Z M 8.234375 -12.8125 L 15.796875 -12.8125 C 15.640625 -13.84375 15.226562 -14.632812 14.5625 -15.1875 C 13.90625 -15.75 13.0625 -16.03125 12.03125 -16.03125 C 10.894531 -16.03125 9.988281 -15.734375 9.3125 -15.140625 C 8.644531 -14.546875 8.285156 -13.769531 8.234375 -12.8125 Z M 8.234375 -12.8125 "/></g></g></g><g fill="#ffffff" fill-opacity="1"><g transform="translate(209.590032, 68.704999)"><g><path d="M 14.125 -32.609375 C 15.863281 -32.609375 17.5625 -32.351562 19.21875 -31.84375 C 20.875 -31.34375 22.101562 -30.84375 22.90625 -30.34375 L 24.0625 -29.578125 L 21.109375 -23.75 C 20.878906 -23.90625 20.554688 -24.101562 20.140625 -24.34375 C 19.722656 -24.59375 18.945312 -24.925781 17.8125 -25.34375 C 16.675781 -25.757812 15.613281 -25.96875 14.625 -25.96875 C 13.414062 -25.96875 12.476562 -25.707031 11.8125 -25.1875 C 11.15625 -24.664062 10.828125 -23.96875 10.828125 -23.09375 C 10.828125 -22.65625 10.984375 -22.25 11.296875 -21.875 C 11.609375 -21.5 12.140625 -21.097656 12.890625 -20.671875 C 13.640625 -20.242188 14.296875 -19.898438 14.859375 -19.640625 C 15.429688 -19.378906 16.3125 -18.988281 17.5 -18.46875 C 19.570312 -17.59375 21.335938 -16.394531 22.796875 -14.875 C 24.265625 -13.363281 25 -11.648438 25 -9.734375 C 25 -7.898438 24.664062 -6.296875 24 -4.921875 C 23.34375 -3.554688 22.4375 -2.484375 21.28125 -1.703125 C 20.132812 -0.929688 18.863281 -0.359375 17.46875 0.015625 C 16.070312 0.390625 14.554688 0.578125 12.921875 0.578125 C 11.523438 0.578125 10.15625 0.4375 8.8125 0.15625 C 7.46875 -0.125 6.34375 -0.476562 5.4375 -0.90625 C 4.53125 -1.332031 3.710938 -1.753906 2.984375 -2.171875 C 2.265625 -2.585938 1.734375 -2.9375 1.390625 -3.21875 L 0.890625 -3.640625 L 4.546875 -9.78125 C 4.847656 -9.519531 5.269531 -9.1875 5.8125 -8.78125 C 6.363281 -8.382812 7.332031 -7.847656 8.71875 -7.171875 C 10.101562 -6.503906 11.320312 -6.171875 12.375 -6.171875 C 15.457031 -6.171875 17 -7.21875 17 -9.3125 C 17 -9.75 16.890625 -10.15625 16.671875 -10.53125 C 16.453125 -10.90625 16.0625 -11.28125 15.5 -11.65625 C 14.945312 -12.03125 14.457031 -12.328125 14.03125 -12.546875 C 13.601562 -12.773438 12.90625 -13.113281 11.9375 -13.5625 C 10.96875 -14.019531 10.25 -14.363281 9.78125 -14.59375 C 7.84375 -15.550781 6.34375 -16.75 5.28125 -18.1875 C 4.21875 -19.625 3.6875 -21.171875 3.6875 -22.828125 C 3.6875 -25.691406 4.742188 -28.035156 6.859375 -29.859375 C 8.984375 -31.691406 11.40625 -32.609375 14.125 -32.609375 Z M 14.125 -32.609375 "/></g></g></g><g fill="#ffffff" fill-opacity="1"><g transform="translate(235.670069, 68.704999)"><g><path d="M 12.921875 -14.859375 C 11.628906 -14.859375 10.515625 -14.378906 9.578125 -13.421875 C 8.648438 -12.472656 8.1875 -11.320312 8.1875 -9.96875 C 8.1875 -8.601562 8.648438 -7.441406 9.578125 -6.484375 C 10.515625 -5.523438 11.628906 -5.046875 12.921875 -5.046875 C 13.546875 -5.046875 14.132812 -5.125 14.6875 -5.28125 C 15.25 -5.4375 15.65625 -5.59375 15.90625 -5.75 L 16.265625 -5.984375 L 18.59375 -1.203125 C 18.40625 -1.078125 18.148438 -0.914062 17.828125 -0.71875 C 17.503906 -0.519531 16.765625 -0.253906 15.609375 0.078125 C 14.460938 0.410156 13.234375 0.578125 11.921875 0.578125 C 8.992188 0.578125 6.421875 -0.445312 4.203125 -2.5 C 1.992188 -4.5625 0.890625 -7.023438 0.890625 -9.890625 C 0.890625 -12.796875 1.992188 -15.289062 4.203125 -17.375 C 6.421875 -19.457031 8.992188 -20.5 11.921875 -20.5 C 13.234375 -20.5 14.445312 -20.34375 15.5625 -20.03125 C 16.675781 -19.71875 17.46875 -19.40625 17.9375 -19.09375 L 18.59375 -18.625 L 16.265625 -13.9375 C 15.410156 -14.550781 14.296875 -14.859375 12.921875 -14.859375 Z M 12.921875 -14.859375 "/></g></g></g><g fill="#ffffff" fill-opacity="1"><g transform="translate(254.72557, 68.704999)"><g><path d="M 8.8125 -19.90625 L 8.8125 -10.4375 C 8.8125 -8.46875 9.109375 -7.066406 9.703125 -6.234375 C 10.296875 -5.410156 11.300781 -5 12.71875 -5 C 14.144531 -5 15.15625 -5.410156 15.75 -6.234375 C 16.351562 -7.066406 16.65625 -8.46875 16.65625 -10.4375 L 16.65625 -19.90625 L 23.515625 -19.90625 L 23.515625 -8.765625 C 23.515625 -5.453125 22.65625 -3.066406 20.9375 -1.609375 C 19.21875 -0.148438 16.484375 0.578125 12.734375 0.578125 C 8.984375 0.578125 6.242188 -0.148438 4.515625 -1.609375 C 2.796875 -3.066406 1.9375 -5.453125 1.9375 -8.765625 L 1.9375 -19.90625 Z M 8.8125 -19.90625 "/></g></g></g><g fill="#ffffff" fill-opacity="1"><g transform="translate(280.184641, 68.704999)"><g><path d="M 2.328125 0 L 2.328125 -33.375 L 9.203125 -33.375 L 9.203125 0 Z M 2.328125 0 "/></g></g></g><g fill="#ffffff" fill-opacity="1"><g transform="translate(291.711077, 68.704999)"><g><path d="M 22.8125 -17.453125 C 24.675781 -15.421875 25.609375 -12.925781 25.609375 -9.96875 C 25.609375 -7.019531 24.675781 -4.523438 22.8125 -2.484375 C 20.957031 -0.441406 18.59375 0.578125 15.71875 0.578125 C 13.082031 0.578125 10.910156 -0.25 9.203125 -1.90625 L 9.203125 10.09375 L 2.328125 10.09375 L 2.328125 -19.90625 L 9.125 -19.90625 L 9.125 -17.65625 L 9.203125 -17.65625 C 10.910156 -19.550781 13.082031 -20.5 15.71875 -20.5 C 18.59375 -20.5 20.957031 -19.484375 22.8125 -17.453125 Z M 16.96875 -6.59375 C 17.863281 -7.476562 18.3125 -8.601562 18.3125 -9.96875 C 18.3125 -11.34375 17.882812 -12.460938 17.03125 -13.328125 C 16.1875 -14.191406 15.0625 -14.625 13.65625 -14.625 C 12.3125 -14.625 11.207031 -14.1875 10.34375 -13.3125 C 9.476562 -12.4375 9.046875 -11.320312 9.046875 -9.96875 C 9.046875 -8.601562 9.488281 -7.476562 10.375 -6.59375 C 11.269531 -5.71875 12.363281 -5.28125 13.65625 -5.28125 C 14.976562 -5.28125 16.082031 -5.71875 16.96875 -6.59375 Z M 16.96875 -6.59375 "/></g></g></g><g fill="#ffffff" fill-opacity="1"><g transform="translate(318.218015, 68.704999)"><g><path d="M 3.5 -19.90625 L 3.5 -27.328125 L 10.359375 -27.328125 L 10.359375 -19.90625 L 14.546875 -19.90625 L 14.546875 -14.671875 L 10.359375 -14.671875 L 10.359375 -8.34375 C 10.359375 -6.507812 10.878906 -5.59375 11.921875 -5.59375 C 12.171875 -5.59375 12.4375 -5.644531 12.71875 -5.75 C 13.007812 -5.851562 13.234375 -5.957031 13.390625 -6.0625 L 13.625 -6.203125 L 15.328125 -0.65625 C 13.859375 0.164062 12.175781 0.578125 10.28125 0.578125 C 8.988281 0.578125 7.875 0.351562 6.9375 -0.09375 C 6.007812 -0.550781 5.304688 -1.160156 4.828125 -1.921875 C 4.347656 -2.679688 4.003906 -3.484375 3.796875 -4.328125 C 3.597656 -5.171875 3.5 -6.070312 3.5 -7.03125 L 3.5 -14.671875 L 0.625 -14.671875 L 0.625 -19.90625 Z M 3.5 -19.90625 "/></g></g></g></svg>